<mxfile host="65bd71144e" pages="2">
    <diagram id="4n2JLlKoIG18_r-i4fTg" name="Page-1">
        <mxGraphModel dx="871" dy="632" grid="1" gridSize="10" guides="1" tooltips="1" connect="1" arrows="1" fold="1" page="1" pageScale="1" pageWidth="1654" pageHeight="1169" math="0" shadow="0">
            <root>
                <mxCell id="0"/>
                <mxCell id="1" parent="0"/>
                <mxCell id="KgUpbxhpnciYqR2GpzP2-3" style="edgeStyle=orthogonalEdgeStyle;rounded=0;orthogonalLoop=1;jettySize=auto;html=1;" parent="1" source="EZV2C1cfWppYSg5PHqp--1" target="dB4QmbY4AmW77ImriIyo-6" edge="1">
                    <mxGeometry relative="1" as="geometry"/>
                </mxCell>
                <mxCell id="EZV2C1cfWppYSg5PHqp--1" value="conversion&lt;br&gt;with starwind execution" style="rounded=1;whiteSpace=wrap;html=1;" parent="1" vertex="1">
                    <mxGeometry x="730" y="520.39" width="120" height="60" as="geometry"/>
                </mxCell>
                <mxCell id="KgUpbxhpnciYqR2GpzP2-11" style="edgeStyle=orthogonalEdgeStyle;rounded=0;orthogonalLoop=1;jettySize=auto;html=1;" parent="1" source="EZV2C1cfWppYSg5PHqp--2" target="EZV2C1cfWppYSg5PHqp--3" edge="1">
                    <mxGeometry relative="1" as="geometry"/>
                </mxCell>
                <mxCell id="EZV2C1cfWppYSg5PHqp--2" value="Upload VM Image&lt;br&gt;with unique filename" style="ellipse;whiteSpace=wrap;html=1;" parent="1" vertex="1">
                    <mxGeometry x="230" y="300" width="120" height="80" as="geometry"/>
                </mxCell>
                <mxCell id="KgUpbxhpnciYqR2GpzP2-6" value="New Image Event" style="edgeStyle=orthogonalEdgeStyle;rounded=0;orthogonalLoop=1;jettySize=auto;html=1;entryX=-0.008;entryY=0.549;entryDx=0;entryDy=0;entryPerimeter=0;fillColor=#d5e8d4;strokeColor=#82b366;" parent="1" source="EZV2C1cfWppYSg5PHqp--3" target="KgUpbxhpnciYqR2GpzP2-5" edge="1">
                    <mxGeometry relative="1" as="geometry"/>
                </mxCell>
                <mxCell id="EZV2C1cfWppYSg5PHqp--3" value="Blob Storage&lt;br&gt;INBOUND" style="verticalLabelPosition=bottom;html=1;verticalAlign=top;align=center;strokeColor=none;fillColor=#00BEF2;shape=mxgraph.azure.storage_blob;" parent="1" vertex="1">
                    <mxGeometry x="420" y="317.61" width="50" height="45" as="geometry"/>
                </mxCell>
                <mxCell id="EZV2C1cfWppYSg5PHqp--18" value="step 1: image conversion" style="text;html=1;align=center;verticalAlign=middle;resizable=0;points=[];autosize=1;strokeColor=none;fontStyle=1;fontSize=18;" parent="1" vertex="1">
                    <mxGeometry x="160" y="130" width="230" height="30" as="geometry"/>
                </mxCell>
                <mxCell id="EZV2C1cfWppYSg5PHqp--20" value="step 2: image customization&lt;br&gt;and versioning through image gallery" style="text;html=1;align=center;verticalAlign=middle;resizable=0;points=[];autosize=1;strokeColor=none;fontStyle=1;fontSize=18;" parent="1" vertex="1">
                    <mxGeometry x="1110" y="105" width="340" height="50" as="geometry"/>
                </mxCell>
                <mxCell id="EZV2C1cfWppYSg5PHqp--58" value="Azure Image Converter" style="text;html=1;align=center;verticalAlign=middle;resizable=0;points=[];autosize=1;strokeColor=none;fontStyle=1;fontSize=18;" parent="1" vertex="1">
                    <mxGeometry x="40" y="55" width="210" height="30" as="geometry"/>
                </mxCell>
                <mxCell id="dB4QmbY4AmW77ImriIyo-3" style="edgeStyle=orthogonalEdgeStyle;rounded=0;orthogonalLoop=1;jettySize=auto;html=1;" parent="1" source="dB4QmbY4AmW77ImriIyo-2" edge="1">
                    <mxGeometry relative="1" as="geometry">
                        <mxPoint x="730" y="550" as="targetPoint"/>
                    </mxGeometry>
                </mxCell>
                <mxCell id="dB4QmbY4AmW77ImriIyo-2" value="Deploy&lt;br&gt;converter VM&lt;br&gt;(Azure Automation)" style="rounded=1;whiteSpace=wrap;html=1;" parent="1" vertex="1">
                    <mxGeometry x="570" y="520.39" width="120" height="60" as="geometry"/>
                </mxCell>
                <mxCell id="KgUpbxhpnciYqR2GpzP2-12" style="edgeStyle=orthogonalEdgeStyle;rounded=0;orthogonalLoop=1;jettySize=auto;html=1;entryX=1;entryY=0.5;entryDx=0;entryDy=0;entryPerimeter=0;" parent="1" source="dB4QmbY4AmW77ImriIyo-6" target="dB4QmbY4AmW77ImriIyo-8" edge="1">
                    <mxGeometry relative="1" as="geometry">
                        <Array as="points">
                            <mxPoint x="1070" y="550"/>
                            <mxPoint x="1070" y="340"/>
                        </Array>
                    </mxGeometry>
                </mxCell>
                <mxCell id="dB4QmbY4AmW77ImriIyo-6" value="upload to blob&lt;br&gt;with azcopy" style="rounded=1;whiteSpace=wrap;html=1;" parent="1" vertex="1">
                    <mxGeometry x="890" y="520.39" width="120" height="60" as="geometry"/>
                </mxCell>
                <mxCell id="KgUpbxhpnciYqR2GpzP2-7" style="edgeStyle=orthogonalEdgeStyle;rounded=0;orthogonalLoop=1;jettySize=auto;html=1;entryX=0.994;entryY=0.498;entryDx=0;entryDy=0;entryPerimeter=0;fillColor=#f8cecc;strokeColor=#b85450;exitX=0;exitY=0.5;exitDx=0;exitDy=0;exitPerimeter=0;" parent="1" source="dB4QmbY4AmW77ImriIyo-8" target="KgUpbxhpnciYqR2GpzP2-5" edge="1">
                    <mxGeometry relative="1" as="geometry">
                        <mxPoint x="999.35" y="407.48275862068976" as="sourcePoint"/>
                        <mxPoint x="650.0000000000001" y="341.74641999999994" as="targetPoint"/>
                        <Array as="points">
                            <mxPoint x="950" y="340"/>
                            <mxPoint x="950" y="340"/>
                        </Array>
                    </mxGeometry>
                </mxCell>
                <mxCell id="KgUpbxhpnciYqR2GpzP2-8" value="Conversion completed" style="edgeLabel;html=1;align=center;verticalAlign=middle;resizable=0;points=[];" parent="KgUpbxhpnciYqR2GpzP2-7" vertex="1" connectable="0">
                    <mxGeometry x="-0.1434" y="-3" relative="1" as="geometry">
                        <mxPoint x="36" y="3" as="offset"/>
                    </mxGeometry>
                </mxCell>
                <mxCell id="dB4QmbY4AmW77ImriIyo-8" value="Blob Storage&lt;br&gt;OUTBOUND" style="verticalLabelPosition=bottom;html=1;verticalAlign=top;align=center;strokeColor=none;fillColor=#00BEF2;shape=mxgraph.azure.storage_blob;" parent="1" vertex="1">
                    <mxGeometry x="1000" y="317.61" width="50" height="45" as="geometry"/>
                </mxCell>
                <mxCell id="dB4QmbY4AmW77ImriIyo-11" value="Destroy &lt;br&gt;converter VM&lt;br&gt;(Azure Automation)" style="rounded=1;whiteSpace=wrap;html=1;" parent="1" vertex="1">
                    <mxGeometry x="575" y="205" width="120" height="60" as="geometry"/>
                </mxCell>
                <mxCell id="KgUpbxhpnciYqR2GpzP2-1" value="tbd" style="text;html=1;align=center;verticalAlign=middle;resizable=0;points=[];autosize=1;strokeColor=none;" parent="1" vertex="1">
                    <mxGeometry x="1280" y="185" width="30" height="20" as="geometry"/>
                </mxCell>
                <mxCell id="KgUpbxhpnciYqR2GpzP2-10" value="Trigger" style="edgeStyle=orthogonalEdgeStyle;rounded=0;orthogonalLoop=1;jettySize=auto;html=1;entryX=0.5;entryY=1;entryDx=0;entryDy=0;dashed=1;fillColor=#f8cecc;strokeColor=#b85450;" parent="1" source="KgUpbxhpnciYqR2GpzP2-5" target="dB4QmbY4AmW77ImriIyo-11" edge="1">
                    <mxGeometry relative="1" as="geometry"/>
                </mxCell>
                <mxCell id="KgUpbxhpnciYqR2GpzP2-5" value="Event Grid" style="aspect=fixed;html=1;points=[];align=center;image;fontSize=12;image=img/lib/azure2/integration/Event_Grid_Topics.svg;" parent="1" vertex="1">
                    <mxGeometry x="610" y="317.61" width="50" height="44.78" as="geometry"/>
                </mxCell>
                <mxCell id="KgUpbxhpnciYqR2GpzP2-9" value="Trigger" style="endArrow=classic;html=1;entryX=0.5;entryY=0;entryDx=0;entryDy=0;dashed=1;fillColor=#d5e8d4;strokeColor=#82b366;" parent="1" target="dB4QmbY4AmW77ImriIyo-2" edge="1">
                    <mxGeometry width="50" height="50" relative="1" as="geometry">
                        <mxPoint x="630" y="385" as="sourcePoint"/>
                        <mxPoint x="670" y="445" as="targetPoint"/>
                    </mxGeometry>
                </mxCell>
            </root>
        </mxGraphModel>
    </diagram>
    <diagram name="old" id="Ayx4G24AMDFc410HURZ9">
        <mxGraphModel dx="2062" dy="1192" grid="1" gridSize="10" guides="1" tooltips="1" connect="1" arrows="1" fold="1" page="1" pageScale="1" pageWidth="1654" pageHeight="1169" math="0" shadow="0">
            <root>
                <mxCell id="DLwAjuz8FD73YbeY9wB8-0"/>
                <mxCell id="DLwAjuz8FD73YbeY9wB8-1" parent="DLwAjuz8FD73YbeY9wB8-0"/>
                <mxCell id="DLwAjuz8FD73YbeY9wB8-2" value="" style="edgeStyle=orthogonalEdgeStyle;rounded=0;orthogonalLoop=1;jettySize=auto;html=1;" edge="1" parent="DLwAjuz8FD73YbeY9wB8-1" source="DLwAjuz8FD73YbeY9wB8-3" target="DLwAjuz8FD73YbeY9wB8-10">
                    <mxGeometry relative="1" as="geometry"/>
                </mxCell>
                <mxCell id="DLwAjuz8FD73YbeY9wB8-3" value="conversion&lt;br&gt;wrapper&lt;br&gt;script.sh" style="rounded=1;whiteSpace=wrap;html=1;" vertex="1" parent="DLwAjuz8FD73YbeY9wB8-1">
                    <mxGeometry x="424" y="510" width="120" height="60" as="geometry"/>
                </mxCell>
                <mxCell id="DLwAjuz8FD73YbeY9wB8-4" style="edgeStyle=orthogonalEdgeStyle;curved=1;rounded=0;orthogonalLoop=1;jettySize=auto;html=1;entryX=0.5;entryY=0;entryDx=0;entryDy=0;entryPerimeter=0;" edge="1" parent="DLwAjuz8FD73YbeY9wB8-1" source="DLwAjuz8FD73YbeY9wB8-5" target="DLwAjuz8FD73YbeY9wB8-7">
                    <mxGeometry relative="1" as="geometry"/>
                </mxCell>
                <mxCell id="DLwAjuz8FD73YbeY9wB8-5" value="Upload VM Image&lt;br&gt;with unique filename" style="ellipse;whiteSpace=wrap;html=1;" vertex="1" parent="DLwAjuz8FD73YbeY9wB8-1">
                    <mxGeometry x="30" y="205" width="120" height="80" as="geometry"/>
                </mxCell>
                <mxCell id="DLwAjuz8FD73YbeY9wB8-6" value="blob storage&lt;br&gt;trigger" style="edgeStyle=orthogonalEdgeStyle;rounded=0;orthogonalLoop=1;jettySize=auto;html=1;entryX=0.5;entryY=0;entryDx=0;entryDy=0;" edge="1" parent="DLwAjuz8FD73YbeY9wB8-1" source="DLwAjuz8FD73YbeY9wB8-7" target="DLwAjuz8FD73YbeY9wB8-3">
                    <mxGeometry x="0.215" relative="1" as="geometry">
                        <mxPoint x="450.68000000000006" y="409.8399999999999" as="targetPoint"/>
                        <mxPoint as="offset"/>
                    </mxGeometry>
                </mxCell>
                <mxCell id="DLwAjuz8FD73YbeY9wB8-7" value="Blob Storage" style="verticalLabelPosition=bottom;html=1;verticalAlign=top;align=center;strokeColor=none;fillColor=#00BEF2;shape=mxgraph.azure.storage_blob;" vertex="1" parent="DLwAjuz8FD73YbeY9wB8-1">
                    <mxGeometry x="280" y="388" width="50" height="45" as="geometry"/>
                </mxCell>
                <mxCell id="DLwAjuz8FD73YbeY9wB8-8" value="yes" style="edgeStyle=orthogonalEdgeStyle;rounded=0;orthogonalLoop=1;jettySize=auto;html=1;" edge="1" parent="DLwAjuz8FD73YbeY9wB8-1" source="DLwAjuz8FD73YbeY9wB8-10" target="DLwAjuz8FD73YbeY9wB8-11">
                    <mxGeometry relative="1" as="geometry"/>
                </mxCell>
                <mxCell id="DLwAjuz8FD73YbeY9wB8-9" value="no" style="edgeStyle=orthogonalEdgeStyle;rounded=0;orthogonalLoop=1;jettySize=auto;html=1;" edge="1" parent="DLwAjuz8FD73YbeY9wB8-1" source="DLwAjuz8FD73YbeY9wB8-10" target="DLwAjuz8FD73YbeY9wB8-13">
                    <mxGeometry relative="1" as="geometry"/>
                </mxCell>
                <mxCell id="DLwAjuz8FD73YbeY9wB8-10" value="is .ova" style="rhombus;whiteSpace=wrap;html=1;" vertex="1" parent="DLwAjuz8FD73YbeY9wB8-1">
                    <mxGeometry x="444" y="610" width="80" height="80" as="geometry"/>
                </mxCell>
                <mxCell id="DLwAjuz8FD73YbeY9wB8-11" value="&lt;div&gt;tar -xvf &amp;lt;image-name&amp;gt;.ova&lt;/div&gt;" style="rounded=1;whiteSpace=wrap;html=1;" vertex="1" parent="DLwAjuz8FD73YbeY9wB8-1">
                    <mxGeometry x="240" y="620" width="120" height="60" as="geometry"/>
                </mxCell>
                <mxCell id="DLwAjuz8FD73YbeY9wB8-12" value="yes" style="edgeStyle=orthogonalEdgeStyle;rounded=0;orthogonalLoop=1;jettySize=auto;html=1;entryX=1;entryY=0.5;entryDx=0;entryDy=0;" edge="1" parent="DLwAjuz8FD73YbeY9wB8-1" source="DLwAjuz8FD73YbeY9wB8-13" target="DLwAjuz8FD73YbeY9wB8-17">
                    <mxGeometry relative="1" as="geometry">
                        <mxPoint x="380" y="780" as="targetPoint"/>
                    </mxGeometry>
                </mxCell>
                <mxCell id="DLwAjuz8FD73YbeY9wB8-13" value="is .vmdk" style="rhombus;whiteSpace=wrap;html=1;" vertex="1" parent="DLwAjuz8FD73YbeY9wB8-1">
                    <mxGeometry x="444" y="750" width="80" height="80" as="geometry"/>
                </mxCell>
                <mxCell id="DLwAjuz8FD73YbeY9wB8-14" style="edgeStyle=orthogonalEdgeStyle;curved=1;rounded=0;orthogonalLoop=1;jettySize=auto;html=1;entryX=0;entryY=0.5;entryDx=0;entryDy=0;entryPerimeter=0;dashed=1;exitX=0;exitY=0.5;exitDx=0;exitDy=0;" edge="1" parent="DLwAjuz8FD73YbeY9wB8-1" source="DLwAjuz8FD73YbeY9wB8-33" target="DLwAjuz8FD73YbeY9wB8-7">
                    <mxGeometry relative="1" as="geometry">
                        <Array as="points">
                            <mxPoint x="90" y="790"/>
                            <mxPoint x="80" y="790"/>
                            <mxPoint x="80" y="411"/>
                        </Array>
                    </mxGeometry>
                </mxCell>
                <mxCell id="DLwAjuz8FD73YbeY9wB8-15" value="log vhd-filename.txt" style="edgeStyle=orthogonalEdgeStyle;rounded=0;orthogonalLoop=1;jettySize=auto;html=1;entryX=0.5;entryY=1;entryDx=0;entryDy=0;entryPerimeter=0;fillColor=#ffe6cc;strokeColor=#d79b00;exitX=1;exitY=0.5;exitDx=0;exitDy=0;" edge="1" parent="DLwAjuz8FD73YbeY9wB8-1" source="DLwAjuz8FD73YbeY9wB8-33" target="DLwAjuz8FD73YbeY9wB8-31">
                    <mxGeometry relative="1" as="geometry">
                        <mxPoint x="240" y="910" as="sourcePoint"/>
                        <Array as="points">
                            <mxPoint x="797" y="885"/>
                        </Array>
                    </mxGeometry>
                </mxCell>
                <mxCell id="DLwAjuz8FD73YbeY9wB8-16" style="edgeStyle=orthogonalEdgeStyle;rounded=0;orthogonalLoop=1;jettySize=auto;html=1;entryX=0.5;entryY=0;entryDx=0;entryDy=0;fontSize=18;" edge="1" parent="DLwAjuz8FD73YbeY9wB8-1" source="DLwAjuz8FD73YbeY9wB8-17" target="DLwAjuz8FD73YbeY9wB8-33">
                    <mxGeometry relative="1" as="geometry"/>
                </mxCell>
                <mxCell id="DLwAjuz8FD73YbeY9wB8-17" value="&lt;div&gt;$ qemu-img convert -f vmdk -O vpc image.vmdk win_or_linux_image.vhd&lt;/div&gt;" style="rounded=1;whiteSpace=wrap;html=1;fontStyle=1" vertex="1" parent="DLwAjuz8FD73YbeY9wB8-1">
                    <mxGeometry x="160" y="765" width="210" height="50" as="geometry"/>
                </mxCell>
                <mxCell id="DLwAjuz8FD73YbeY9wB8-18" value="step 1: image conversion" style="text;html=1;align=center;verticalAlign=middle;resizable=0;points=[];autosize=1;strokeColor=none;fontStyle=1;fontSize=18;" vertex="1" parent="DLwAjuz8FD73YbeY9wB8-1">
                    <mxGeometry x="160" y="130" width="230" height="30" as="geometry"/>
                </mxCell>
                <mxCell id="DLwAjuz8FD73YbeY9wB8-19" value="step 2: image customization&lt;br&gt;and versioning through image gallery" style="text;html=1;align=center;verticalAlign=middle;resizable=0;points=[];autosize=1;strokeColor=none;fontStyle=1;fontSize=18;" vertex="1" parent="DLwAjuz8FD73YbeY9wB8-1">
                    <mxGeometry x="705" y="120" width="340" height="50" as="geometry"/>
                </mxCell>
                <mxCell id="DLwAjuz8FD73YbeY9wB8-20" value="" style="endArrow=classic;html=1;dashed=1;" edge="1" parent="DLwAjuz8FD73YbeY9wB8-1">
                    <mxGeometry width="50" height="50" relative="1" as="geometry">
                        <mxPoint x="350" y="370" as="sourcePoint"/>
                        <mxPoint x="530" y="250" as="targetPoint"/>
                    </mxGeometry>
                </mxCell>
                <mxCell id="DLwAjuz8FD73YbeY9wB8-21" value="Artifact: VHD Image" style="verticalLabelPosition=bottom;html=1;verticalAlign=top;align=center;strokeColor=none;fillColor=#00BEF2;shape=mxgraph.azure.operating_system_image;fontStyle=1" vertex="1" parent="DLwAjuz8FD73YbeY9wB8-1">
                    <mxGeometry x="580" y="220" width="50" height="50" as="geometry"/>
                </mxCell>
                <mxCell id="DLwAjuz8FD73YbeY9wB8-22" value="" style="endArrow=classic;html=1;dashed=1;entryX=0.5;entryY=0;entryDx=0;entryDy=0;" edge="1" parent="DLwAjuz8FD73YbeY9wB8-1" target="DLwAjuz8FD73YbeY9wB8-24">
                    <mxGeometry width="50" height="50" relative="1" as="geometry">
                        <mxPoint x="680" y="260" as="sourcePoint"/>
                        <mxPoint x="900" y="480" as="targetPoint"/>
                    </mxGeometry>
                </mxCell>
                <mxCell id="DLwAjuz8FD73YbeY9wB8-23" value="publish" style="edgeStyle=none;rounded=0;orthogonalLoop=1;jettySize=auto;html=1;exitX=0.75;exitY=0;exitDx=0;exitDy=0;fontStyle=1" edge="1" parent="DLwAjuz8FD73YbeY9wB8-1" source="DLwAjuz8FD73YbeY9wB8-24">
                    <mxGeometry relative="1" as="geometry">
                        <mxPoint x="1100" y="340" as="targetPoint"/>
                    </mxGeometry>
                </mxCell>
                <mxCell id="DLwAjuz8FD73YbeY9wB8-24" value="&amp;nbsp;&amp;nbsp;azure&lt;br&gt;packer build&lt;br&gt;windows.sh" style="rounded=1;whiteSpace=wrap;html=1;fontStyle=1" vertex="1" parent="DLwAjuz8FD73YbeY9wB8-1">
                    <mxGeometry x="737" y="510" width="120" height="60" as="geometry"/>
                </mxCell>
                <mxCell id="DLwAjuz8FD73YbeY9wB8-25" style="edgeStyle=none;rounded=0;orthogonalLoop=1;jettySize=auto;html=1;exitX=1;exitY=0.25;exitDx=0;exitDy=0;" edge="1" parent="DLwAjuz8FD73YbeY9wB8-1" source="DLwAjuz8FD73YbeY9wB8-26">
                    <mxGeometry relative="1" as="geometry">
                        <mxPoint x="1100" y="340" as="targetPoint"/>
                    </mxGeometry>
                </mxCell>
                <mxCell id="DLwAjuz8FD73YbeY9wB8-26" value="packerbuild&lt;br&gt;&amp;nbsp;azure linux.sh" style="rounded=1;whiteSpace=wrap;html=1;fontStyle=1" vertex="1" parent="DLwAjuz8FD73YbeY9wB8-1">
                    <mxGeometry x="737" y="620" width="120" height="60" as="geometry"/>
                </mxCell>
                <mxCell id="DLwAjuz8FD73YbeY9wB8-27" style="edgeStyle=none;rounded=0;orthogonalLoop=1;jettySize=auto;html=1;entryX=0.8;entryY=-0.02;entryDx=0;entryDy=0;entryPerimeter=0;" edge="1" parent="DLwAjuz8FD73YbeY9wB8-1" source="DLwAjuz8FD73YbeY9wB8-28" target="DLwAjuz8FD73YbeY9wB8-30">
                    <mxGeometry relative="1" as="geometry"/>
                </mxCell>
                <mxCell id="DLwAjuz8FD73YbeY9wB8-28" value="Artifact:&lt;br&gt;Shared Image Gallery" style="aspect=fixed;html=1;points=[];align=center;image;fontSize=12;image=img/lib/azure2/compute/Shared_Image_Galleries.svg;fontStyle=1" vertex="1" parent="DLwAjuz8FD73YbeY9wB8-1">
                    <mxGeometry x="1110" y="213" width="64" height="64" as="geometry"/>
                </mxCell>
                <mxCell id="DLwAjuz8FD73YbeY9wB8-29" value="step 3: build &amp;amp; destroy VM test" style="text;html=1;align=center;verticalAlign=middle;resizable=0;points=[];autosize=1;strokeColor=none;fontStyle=1;fontSize=18;" vertex="1" parent="DLwAjuz8FD73YbeY9wB8-1">
                    <mxGeometry x="1315" y="130" width="280" height="30" as="geometry"/>
                </mxCell>
                <mxCell id="DLwAjuz8FD73YbeY9wB8-30" value="terraform apply vm.tf" style="aspect=fixed;html=1;points=[];align=center;image;fontSize=12;image=img/lib/mscae/Azure_Pipelines.svg;" vertex="1" parent="DLwAjuz8FD73YbeY9wB8-1">
                    <mxGeometry x="1480" y="600" width="50" height="50" as="geometry"/>
                </mxCell>
                <mxCell id="DLwAjuz8FD73YbeY9wB8-31" value="" style="verticalLabelPosition=bottom;html=1;verticalAlign=top;align=center;strokeColor=none;fillColor=#00BEF2;shape=mxgraph.azure.github_code;pointerEvents=1;" vertex="1" parent="DLwAjuz8FD73YbeY9wB8-1">
                    <mxGeometry x="772" y="815" width="50" height="50" as="geometry"/>
                </mxCell>
                <mxCell id="DLwAjuz8FD73YbeY9wB8-32" value="Azure Image Converter" style="text;html=1;align=center;verticalAlign=middle;resizable=0;points=[];autosize=1;strokeColor=none;fontStyle=1;fontSize=18;" vertex="1" parent="DLwAjuz8FD73YbeY9wB8-1">
                    <mxGeometry x="40" y="55" width="210" height="30" as="geometry"/>
                </mxCell>
                <mxCell id="DLwAjuz8FD73YbeY9wB8-33" value="&lt;div&gt;azcopy&amp;nbsp;&lt;/div&gt;win_or_linux_image.vhd to blob" style="rounded=1;whiteSpace=wrap;html=1;fontStyle=1" vertex="1" parent="DLwAjuz8FD73YbeY9wB8-1">
                    <mxGeometry x="90" y="860" width="210" height="50" as="geometry"/>
                </mxCell>
                <mxCell id="DLwAjuz8FD73YbeY9wB8-34" value="Trigger" style="edgeStyle=none;rounded=0;orthogonalLoop=1;jettySize=auto;html=1;exitX=0.5;exitY=0;exitDx=0;exitDy=0;fontStyle=1;exitPerimeter=0;entryX=0.5;entryY=1;entryDx=0;entryDy=0;" edge="1" parent="DLwAjuz8FD73YbeY9wB8-1" source="DLwAjuz8FD73YbeY9wB8-31" target="DLwAjuz8FD73YbeY9wB8-26">
                    <mxGeometry relative="1" as="geometry">
                        <mxPoint x="1110" y="350" as="targetPoint"/>
                        <mxPoint x="837" y="520" as="sourcePoint"/>
                    </mxGeometry>
                </mxCell>
                <mxCell id="DLwAjuz8FD73YbeY9wB8-35" value="image worker VM: windows with starwind converter" style="aspect=fixed;html=1;points=[];align=center;image;fontSize=12;image=img/lib/azure2/compute/Virtual_Machine.svg;" vertex="1" parent="DLwAjuz8FD73YbeY9wB8-1">
                    <mxGeometry x="444" y="970" width="59" height="54.72" as="geometry"/>
                </mxCell>
            </root>
        </mxGraphModel>
    </diagram>
</mxfile>